<mxfile host="app.diagrams.net">
  <diagram name="Page-1">
    <mxGraphModel dx="1000" dy="1000" grid="1" gridSize="10" guides="1" tooltips="1" connect="1" arrows="1" fold="1" page="1" pageScale="1" pageWidth="827" pageHeight="1169" math="0" shadow="0">
      <root>
        <mxCell id="0"/>
        <mxCell id="1" parent="0"/>
        
        <!-- Root -->
        <mxCell id="root" value="Interpretability in FER" style="rounded=1;whiteSpace=wrap;html=1;fillColor=#dae8fc;strokeColor=#6c8ebf;" vertex="1" parent="1">
          <mxGeometry x="400" y="20" width="200" height="50" as="geometry"/>
        </mxCell>

        <!-- Intrinsic -->
        <mxCell id="intrinsic" value="1) Intrinsic (White-box) Models" style="rounded=1;whiteSpace=wrap;html=1;fillColor=#d5e8d4;strokeColor=#82b366;" vertex="1" parent="1">
          <mxGeometry x="100" y="120" width="220" height="40" as="geometry"/>
        </mxCell>
        <mxCell id="edge1" edge="1" parent="1" source="root" target="intrinsic">
          <mxGeometry relative="1" as="geometry"/>
        </mxCell>

        <!-- Post-hoc -->
        <mxCell id="posthoc" value="2) Post-hoc Explanations" style="rounded=1;whiteSpace=wrap;html=1;fillColor=#f8cecc;strokeColor=#b85450;" vertex="1" parent="1">
          <mxGeometry x="400" y="120" width="220" height="40" as="geometry"/>
        </mxCell>
        <mxCell id="edge2" edge="1" parent="1" source="root" target="posthoc">
          <mxGeometry relative="1" as="geometry"/>
        </mxCell>

        <!-- Textual -->
        <mxCell id="textual" value="3) Textual &amp; Hybrid Explanations" style="rounded=1;whiteSpace=wrap;html=1;fillColor=#fff2cc;strokeColor=#d6b656;" vertex="1" parent="1">
          <mxGeometry x="700" y="120" width="250" height="40" as="geometry"/>
        </mxCell>
        <mxCell id="edge3" edge="1" parent="1" source="root" target="textual">
          <mxGeometry relative="1" as="geometry"/>
        </mxCell>

        <!-- Human-centered -->
        <mxCell id="human" value="4) Human-Centered Evaluation" style="rounded=1;whiteSpace=wrap;html=1;fillColor=#e1d5e7;strokeColor=#9673a6;" vertex="1" parent="1">
          <mxGeometry x="100" y="220" width="250" height="40" as="geometry"/>
        </mxCell>
        <mxCell id="edge4" edge="1" parent="1" source="root" target="human">
          <mxGeometry relative="1" as="geometry"/>
        </mxCell>

        <!-- Interactive -->
        <mxCell id="interactive" value="5) Interactive Approaches" style="rounded=1;whiteSpace=wrap;html=1;fillColor=#f5f5f5;strokeColor=#666666;" vertex="1" parent="1">
          <mxGeometry x="450" y="220" width="250" height="40" as="geometry"/>
        </mxCell>
        <mxCell id="edge5" edge="1" parent="1" source="root" target="interactive">
          <mxGeometry relative="1" as="geometry"/>
        </mxCell>
      </root>
    </mxGraphModel>
  </diagram>
</mxfile>